<svg width="627" height="627" viewBox="0 0 627 627" fill="none" xmlns="http://www.w3.org/2000/svg">
<mask id="mask0_71_9" style="mask-type:luminance" maskUnits="userSpaceOnUse" x="1" y="1" width="625" height="625">
<path d="M625.448 1H1V625.748H625.448V1Z" fill="white"/>
<path d="M3.5 623.248V3.5H622.948V623.248H3.5Z" stroke="white" stroke-width="5"/>
</mask>
<g mask="url(#mask0_71_9)">
<path d="M300.735 623.722C297.621 623.597 295.136 609.132 293.529 581.783C291.923 554.433 291.255 515.16 291.59 467.914C291.926 420.667 293.252 367.109 295.438 312.624C297.624 258.141 300.59 204.649 304.039 157.525C307.487 110.403 311.3 71.3106 315.089 44.1771C318.878 17.0437 322.515 2.82249 325.629 2.94957" stroke="white" stroke-opacity="0.5" stroke-width="5"/>
</g>
<mask id="mask1_71_9" style="mask-type:luminance" maskUnits="userSpaceOnUse" x="1" y="1" width="625" height="625">
<path d="M625.448 1H1V625.748H625.448V1Z" fill="white"/>
<path d="M3.5 623.248V3.5H622.948V623.248H3.5Z" stroke="white" stroke-width="5"/>
</mask>
<g mask="url(#mask1_71_9)">
<path d="M253.003 618.084C238.735 615.265 227.501 598.416 220.426 569.229C213.353 540.042 210.689 499.544 212.705 451.807C214.72 404.069 221.341 350.776 231.906 297.282C242.471 243.788 256.604 191.976 272.885 147.058C289.166 102.14 307.022 65.6958 324.66 41.3888C342.298 17.0818 359.095 5.76838 373.363 8.5872" stroke="white" stroke-opacity="0.5" stroke-width="5"/>
</g>
<path d="M201.11 603.045C177.817 594.031 160.111 571.791 149.774 538.557C139.438 505.323 136.833 462.271 142.224 413.723C147.614 365.175 160.807 312.845 180.481 261.989C200.155 211.136 225.61 163.549 254.296 124.014C282.98 84.4795 313.882 54.3874 343.889 36.7678C373.9 19.1457 401.96 14.6137 425.256 23.6269" stroke="white" stroke-opacity="0.5" stroke-width="5"/>
<path d="M142.122 572.614C113.988 554.047 94.2504 523.828 84.8977 484.992C75.5449 446.156 76.9046 400.071 88.8421 351.373C100.777 302.676 122.87 253.075 152.898 207.562C182.926 162.049 219.829 122.225 259.903 92.0921C299.975 61.9594 341.803 42.5809 381.184 35.9036C420.564 29.2264 456.11 35.4868 484.244 54.0519" stroke="white" stroke-opacity="0.5" stroke-width="5"/>
<path d="M76.5615 514.563C50.5569 483.978 35.9432 444.634 34.1896 400.483C32.4359 356.335 43.6058 308.936 66.5734 263.052C89.541 217.168 123.501 174.415 165.036 139.095C206.572 103.774 254.22 77.121 303.195 61.8246C352.17 46.5283 400.74 43.1197 444.03 51.9473C487.319 60.7724 523.8 81.5234 549.805 112.106" stroke="white" stroke-opacity="0.5" stroke-width="5"/>
<mask id="mask2_71_9" style="mask-type:luminance" maskUnits="userSpaceOnUse" x="1" y="1" width="625" height="625">
<path d="M625.448 1H1V625.748H625.448V1Z" fill="white"/>
<path d="M3.5 623.248V3.5H622.948V623.248H3.5Z" stroke="white" stroke-width="5"/>
</mask>
<g mask="url(#mask2_71_9)">
<path d="M19.0142 413.037C4.9419 371.509 4.71062 326.106 18.3432 281.391C31.9759 236.676 58.9895 194.226 96.6749 158.305C134.358 122.385 181.381 94.2602 233.019 76.7576C284.657 59.2549 339.089 52.9945 390.844 58.6017C442.599 64.2088 489.853 81.4878 527.859 108.703C565.865 135.917 593.28 172.107 607.355 213.635" stroke="white" stroke-opacity="0.5" stroke-width="5"/>
</g>
<mask id="mask3_71_9" style="mask-type:luminance" maskUnits="userSpaceOnUse" x="1" y="1" width="625" height="625">
<path d="M625.448 1H1V625.748H625.448V1Z" fill="white"/>
<path d="M3.5 623.248V3.5H622.948V623.248H3.5Z" stroke="white" stroke-width="5"/>
</mask>
<g mask="url(#mask3_71_9)">
<path d="M4.86328 275.743C13.0113 208.915 53.3069 148.781 116.888 108.573C180.471 68.3672 262.13 51.3805 343.9 61.3519C425.673 71.3232 500.858 107.432 552.918 161.739C604.978 216.047 629.649 284.098 621.503 350.929" stroke="white" stroke-opacity="0.5" stroke-width="5"/>
</g>
<path d="M46.8794 153.453C79.7207 98.7414 139.273 63.1159 212.436 54.4128C285.6 45.7098 366.379 64.6435 437.008 107.045C507.634 149.45 562.324 211.85 589.043 280.521C615.762 349.193 612.323 418.507 579.482 473.218" stroke="white" stroke-opacity="0.5" stroke-width="5"/>
<path d="M111.972 76.6915C154.593 40.4458 216.664 30.6168 284.535 49.3649C352.406 68.113 420.516 113.906 473.88 176.667C527.244 239.429 561.493 314.017 569.09 384.028C576.686 454.038 557.012 513.729 514.391 549.977" stroke="white" stroke-opacity="0.5" stroke-width="5"/>
<path d="M174.587 35.3394C214.209 15.5822 266.811 25.9221 320.818 64.0868C374.825 102.252 425.818 165.112 462.575 238.841C499.333 312.571 518.847 391.129 516.821 457.233C514.796 523.34 491.399 571.577 451.777 591.335" stroke="white" stroke-opacity="0.5" stroke-width="5"/>
<path d="M229.504 14.1842C257.994 6.21318 294.134 30.0855 329.972 80.5524C365.81 131.017 398.412 203.94 420.605 283.282C442.797 362.621 452.762 441.878 448.312 503.615C443.859 565.353 425.352 604.514 396.862 612.485" stroke="white" stroke-opacity="0.5" stroke-width="5"/>
<path d="M278.766 4.61187C291.565 3.1834 307.467 34.3405 322.97 91.2279C338.476 148.115 352.314 226.074 361.441 307.952C370.57 389.83 374.24 468.923 371.642 527.828C369.045 586.734 360.396 620.629 347.597 622.057" stroke="white" stroke-opacity="0.5" stroke-width="5"/>
<path d="M361.891 620.138C330.018 625.199 296.348 625.199 264.475 620.138M469.986 581.49C428.681 605.65 372.174 619.264 313.183 619.264C254.195 619.264 197.684 605.65 156.38 581.49M529.518 536.239C484.307 580.131 402.049 607.058 313.183 607.058C224.314 607.058 142.056 580.128 96.845 536.239M571.72 485.5C551.723 515.539 516.297 541.389 470.131 559.623C423.964 577.861 369.236 587.624 313.185 587.624C257.135 587.624 202.404 577.861 156.24 559.623C110.073 541.389 74.6475 515.541 54.6509 485.5M600.835 430.522C585.668 467.761 548.994 500.962 496.768 524.73C444.546 548.496 379.841 561.431 313.18 561.431C246.519 561.431 181.818 548.496 129.592 524.73C77.3694 500.962 40.693 467.761 25.5253 430.522M618.069 372.658C609.7 415.688 573.974 455.436 517.726 484.306C461.477 513.173 388.655 529.132 313.183 529.132C237.71 529.132 164.886 513.173 108.64 484.306C52.3915 455.439 16.6681 415.688 8.29642 372.658M623.785 313.336C623.785 344.612 609.433 375.34 582.173 402.427C554.913 429.515 515.703 452.01 468.484 467.647C421.268 483.286 367.706 491.519 313.183 491.519C258.66 491.519 205.098 483.286 157.882 467.647C110.663 452.007 71.4553 429.515 44.1926 402.427C16.9324 375.34 2.58057 344.612 2.58057 313.336M623.785 313.336C623.785 395.722 591.061 474.733 532.812 532.988C474.563 591.243 395.561 623.971 313.183 623.971C230.805 623.971 151.802 591.243 93.5537 532.988C35.305 474.731 2.58057 395.722 2.58057 313.336M623.785 313.336C623.785 230.949 591.061 151.938 532.812 93.6833C474.563 35.4283 395.561 2.70045 313.183 2.70045C230.805 2.70045 151.802 35.4283 93.5537 93.6833C35.305 151.938 2.58057 230.949 2.58057 313.336M618.069 254.011C624.469 286.914 614.562 320.183 589.485 350.001C564.408 379.818 525.18 404.974 476.304 422.576C427.431 440.18 370.89 449.519 313.18 449.519C255.47 449.519 198.932 440.18 150.056 422.576C101.181 404.972 61.9526 379.816 36.8782 350.001C11.8011 320.183 1.89437 286.911 8.29388 254.011M600.835 196.147C614.382 229.406 610.091 264.239 588.529 296.075C566.967 327.91 529.14 355.267 480.002 374.557C430.867 393.846 372.72 404.166 313.18 404.166C253.64 404.166 195.493 393.846 146.359 374.557C97.2236 355.267 59.3933 327.913 37.8312 296.075C16.2691 264.239 11.9791 229.406 25.5253 196.147M571.72 141.171C593.142 173.348 595.74 208.65 579.123 241.749C562.507 274.848 527.582 303.949 479.608 324.664C431.637 345.377 373.223 356.579 313.183 356.579C253.14 356.579 194.728 345.377 146.758 324.664C98.7867 303.951 63.8562 274.848 47.2424 241.749C30.6286 208.65 33.226 173.348 54.6484 141.171M529.518 90.4323C559.721 119.754 570.851 154.264 560.936 187.846C551.019 221.425 520.702 251.909 475.351 273.887C430.001 295.869 372.55 307.927 313.183 307.927C253.813 307.927 196.363 295.869 151.012 273.887C105.661 251.906 75.3438 221.425 65.4269 187.846C55.5125 154.266 66.6417 119.754 96.845 90.4323M469.986 45.1811C510.599 68.9365 533.183 100.948 532.809 134.222C532.433 167.496 509.128 199.337 467.983 222.79C426.836 246.243 371.19 259.407 313.185 259.407C255.181 259.407 199.534 246.243 158.387 222.79C117.241 199.337 93.9375 167.496 93.5613 134.222C93.1852 100.948 115.769 68.9391 156.385 45.1811M361.891 6.53091C404.453 13.292 441.3 28.6723 465.607 49.8249C489.917 70.9776 500.034 96.469 494.087 121.574C488.14 146.679 466.535 169.698 433.271 186.364C400.008 203.03 357.344 212.214 313.18 212.214C269.017 212.214 226.352 203.03 193.089 186.364C159.826 169.698 138.221 146.679 132.276 121.574C126.331 96.469 136.449 70.9776 160.756 49.8249C185.063 28.6723 221.91 13.292 264.472 6.53091M454.193 86.612C454.193 108.07 439.335 128.645 412.891 143.817C386.447 158.989 350.579 167.514 313.183 167.514C275.785 167.514 239.919 158.989 213.472 143.817C187.028 128.645 172.173 108.07 172.173 86.612C172.173 65.1569 187.028 44.5787 213.472 29.4069C239.916 14.235 275.785 5.71246 313.183 5.71246C350.581 5.71246 386.447 14.235 412.891 29.4069C439.335 44.5787 454.193 65.1544 454.193 86.612ZM409.165 71.3309C409.165 85.9359 399.053 99.9436 381.054 110.271C363.055 120.598 338.641 126.401 313.185 126.401C287.73 126.401 263.316 120.601 245.317 110.271C227.318 99.9436 217.205 85.9359 217.205 71.3309C217.205 56.7259 227.318 42.7181 245.317 32.3909C263.316 22.0637 287.73 16.2608 313.185 16.2608C338.641 16.2608 363.055 22.0611 381.054 32.3909C399.053 42.7181 409.165 56.7259 409.165 71.3309ZM361.771 62.0102C361.771 77.4108 340.019 89.8935 313.183 89.8935C286.347 89.8935 264.594 77.4083 264.594 62.0102C264.594 46.6096 286.347 34.1269 313.183 34.1269C340.019 34.1269 361.771 46.6096 361.771 62.0102Z" stroke="white" stroke-opacity="0.5" stroke-width="5"/>
</svg>
